# xmcd CD database file
#
# Track frame offsets:
#	150
#	19925
#	42975
#	62737
#
# Disc length: 1140 seconds
#
# Revision: 0
# Processed by: cddbd v1.5.1PL0 Copyright (c) Steve Scherf et al.
# Submitted via: CDex 1.51
#
DISCID=2f047204
DTITLE=岡村孝子 - ヒロイン〜あの日の涙を忘れない〜
DYEAR=1994
DGENRE=JPop
TTITLE0=ヒロイン〜あの日の涙を忘れない〜
TTITLE1=あなたの隣り
TTITLE2=ヒロイン〜あの日の涙を忘れない〜(オリジナルカラオケ)
TTITLE3=あなたの隣り(オリジナルカラオケ)
EXTD=YEAR: 1994
EXTT0=
EXTT1=
EXTT2=
EXTT3=
PLAYORDER=
